<?xml version="1.0" standalone="no"?>
<!DOCTYPE svg PUBLIC "-//W3C//DTD SVG 20010904//EN"
 "http://www.w3.org/TR/2001/REC-SVG-20010904/DTD/svg10.dtd">
<svg version="1.0" xmlns="http://www.w3.org/2000/svg"
 width="2560.000000pt" height="2560.000000pt" viewBox="0 0 2560.000000 2560.000000"
 preserveAspectRatio="xMidYMid meet">

<g transform="translate(0.000000,2560.000000) scale(0.100000,-0.100000)"
fill="#000000" stroke="none">
<path d="M10523 19231 c-26 -12 -36 -64 -31 -156 l3 -60 63 -3 c103 -5 98 27
94 -532 -3 -382 -6 -479 -17 -496 -9 -14 -33 -26 -65 -34 -70 -17 -90 -49 -90
-146 0 -110 -21 -104 353 -104 347 0 386 4 487 55 84 43 139 106 197 229 31
65 42 222 20 281 -8 22 -26 71 -40 108 -14 38 -39 86 -56 107 -36 45 -39 81
-12 116 23 29 49 136 52 209 2 67 -15 175 -35 214 -27 52 -141 165 -193 191
-48 24 -50 25 -378 27 -189 2 -339 -1 -352 -6z m681 -274 c66 -44 86 -80 86
-158 0 -60 -21 -110 -62 -144 -29 -24 -34 -25 -190 -25 -136 0 -164 3 -180 17
-16 14 -18 33 -18 155 0 134 7 171 34 191 6 4 70 6 142 5 l131 -3 57 -38z
m-14 -599 c69 -21 116 -56 145 -109 54 -100 17 -222 -84 -276 -41 -21 -56 -23
-213 -23 -222 0 -208 -15 -203 210 4 178 8 194 50 210 27 11 260 1 305 -12z"/>
<path d="M11870 19203 c-26 -23 -32 -38 -37 -85 -11 -110 14 -133 127 -122 61
6 70 4 89 -15 29 -29 27 -48 -20 -181 -22 -63 -46 -140 -53 -171 -8 -31 -25
-86 -40 -122 -14 -36 -26 -71 -26 -79 0 -7 -9 -30 -20 -51 -11 -20 -20 -49
-20 -64 0 -14 -6 -34 -14 -42 -8 -9 -19 -41 -25 -71 -7 -30 -17 -61 -24 -70
-7 -8 -19 -37 -26 -65 -23 -94 -32 -103 -112 -120 -34 -6 -40 -22 -46 -125 -7
-114 -2 -119 138 -125 57 -2 144 -1 193 2 120 8 134 20 141 125 2 43 0 89 -5
103 -9 22 -15 25 -63 25 -29 0 -58 5 -65 12 -17 17 -15 93 3 128 30 58 60 65
262 65 220 0 228 -3 252 -104 18 -76 10 -92 -45 -105 -72 -15 -82 -23 -95 -68
-13 -49 -6 -155 11 -172 15 -15 343 -20 386 -6 17 6 42 22 55 36 21 23 24 33
21 96 -1 39 -7 78 -11 86 -5 8 -28 24 -52 36 -34 16 -49 33 -71 76 -15 30 -28
63 -28 73 0 31 -40 179 -62 226 -11 24 -22 60 -25 80 -2 20 -13 61 -22 91 -10
30 -28 89 -40 130 -13 41 -29 95 -37 120 -9 25 -22 73 -30 108 -7 34 -21 76
-29 92 -8 16 -15 37 -15 47 0 19 -60 200 -73 221 -6 9 -60 12 -212 12 l-205 0
-30 -27z m398 -445 c6 -7 13 -31 17 -53 11 -62 46 -178 62 -200 20 -30 16 -72
-9 -89 -32 -23 -200 -23 -222 0 -20 20 -20 74 0 122 9 20 27 69 40 107 46 128
44 125 74 125 15 0 32 -6 38 -12z"/>
<path d="M12965 19195 c-28 -23 -30 -30 -33 -102 -4 -101 3 -111 86 -117 34
-2 69 -9 77 -16 27 -23 16 -963 -12 -991 -6 -6 -42 -17 -79 -23 -66 -11 -67
-12 -81 -51 -19 -52 -14 -182 7 -196 10 -6 184 -9 472 -7 391 3 459 5 472 18
22 22 34 117 46 350 6 113 13 233 17 267 4 50 2 68 -12 89 -15 24 -22 26 -63
21 -35 -4 -53 -12 -73 -35 -25 -28 -27 -36 -33 -173 -4 -79 -9 -170 -12 -202
-9 -86 -21 -90 -243 -85 -97 3 -184 8 -193 12 -27 12 -31 59 -24 304 3 125 6
329 6 454 l0 228 24 15 c14 9 51 19 83 21 94 8 103 12 119 49 18 44 18 144 0
171 -14 19 -26 20 -268 22 l-253 1 -30 -24z"/>
<path d="M14250 19189 c-36 -15 -40 -25 -40 -120 0 -102 -5 -98 120 -106 47
-3 90 -10 96 -14 7 -6 9 -22 4 -47 -12 -55 -87 -287 -105 -321 -8 -17 -15 -37
-15 -46 0 -8 -9 -41 -21 -73 -11 -31 -27 -79 -34 -107 -7 -27 -31 -94 -54
-148 -23 -53 -41 -107 -42 -120 0 -12 -12 -46 -27 -76 -22 -44 -34 -57 -62
-66 -53 -18 -80 -71 -80 -162 0 -61 3 -74 19 -83 12 -6 98 -10 211 -10 l191 0
24 26 c17 18 25 39 25 63 0 20 3 52 6 71 8 51 -25 85 -93 94 -72 9 -82 24 -55
89 12 29 22 58 22 64 0 34 43 42 238 45 l194 3 24 -28 c13 -15 31 -53 40 -84
16 -56 16 -57 -6 -75 -12 -10 -31 -18 -43 -18 -11 0 -35 -11 -54 -26 -33 -25
-33 -26 -33 -105 0 -126 -13 -119 218 -119 l198 0 27 28 c24 25 27 36 27 101
0 40 -4 80 -10 90 -5 10 -34 29 -65 41 -38 15 -57 29 -60 44 -3 11 -9 43 -15
69 -6 27 -17 58 -24 70 -8 12 -18 44 -22 72 -4 27 -15 67 -25 90 -10 22 -19
52 -19 67 0 15 -9 44 -19 65 -11 21 -22 58 -26 83 -4 25 -14 57 -22 73 -7 15
-18 51 -24 80 -5 30 -18 71 -29 92 -11 22 -20 50 -20 63 0 12 -6 35 -14 50 -7
15 -19 54 -26 87 -7 33 -20 74 -30 90 -10 17 -20 50 -23 74 -6 44 -18 58 -62
73 -32 10 -358 8 -385 -3z m367 -451 c12 -13 24 -45 28 -73 4 -27 18 -79 31
-115 46 -120 46 -119 19 -146 -21 -21 -33 -24 -94 -24 -74 0 -119 12 -137 36
-11 14 -6 35 38 159 6 17 16 57 24 90 8 38 21 67 35 78 27 22 31 22 56 -5z"/>
<path d="M10785 17470 c-279 -4 -324 -7 -352 -22 -54 -30 -54 -109 -1 -120 13
-3 100 -4 193 -3 94 1 1140 3 2325 4 2097 1 2156 2 2186 20 51 31 52 104 1
116 -28 7 -3928 12 -4352 5z"/>
<path d="M12996 16895 c-3 -8 -1 -27 4 -41 6 -14 10 -52 10 -85 0 -50 -4 -64
-25 -84 -13 -14 -29 -25 -35 -25 -14 0 -89 -52 -90 -61 0 -14 57 -29 100 -28
79 3 97 -15 109 -116 6 -47 8 -50 36 -50 26 0 30 5 42 45 7 25 25 56 40 69 24
21 33 23 90 17 61 -6 103 3 103 24 0 5 -27 38 -60 73 -33 36 -60 74 -60 84 0
11 9 49 20 83 25 79 25 80 -5 80 -14 0 -25 -5 -25 -11 0 -17 -70 -41 -99 -34
-14 4 -47 22 -73 41 -53 37 -73 42 -82 19z"/>
<path d="M11316 16595 c-19 -20 -19 -18 -4 -106 l11 -70 -29 -31 c-16 -16 -47
-38 -69 -48 -22 -10 -49 -27 -60 -39 -16 -19 -17 -24 -5 -31 8 -6 37 -10 63
-10 96 0 147 -41 147 -120 0 -25 5 -52 10 -60 9 -13 13 -11 31 10 11 14 29 44
40 67 27 58 64 76 134 68 127 -16 126 27 -4 132 -32 26 -30 77 7 146 16 31 27
58 24 61 -11 11 -50 6 -62 -8 -17 -21 -77 -39 -106 -32 -14 4 -45 25 -69 47
-39 36 -44 38 -59 24z"/>
<path d="M13828 16568 c-15 -12 -15 -19 -1 -90 14 -71 14 -79 -1 -103 -9 -14
-36 -34 -60 -46 -97 -45 -91 -78 19 -96 85 -15 100 -30 110 -113 6 -54 9 -60
30 -60 19 0 29 11 48 53 42 89 46 92 123 89 49 -2 75 1 89 12 23 16 30 4 -63
108 -23 26 -42 58 -42 70 0 13 12 47 28 76 26 51 26 54 8 67 -16 12 -24 11
-67 -10 -27 -14 -59 -25 -72 -25 -23 0 -97 46 -112 69 -8 14 -18 14 -37 -1z"/>
<path d="M12247 16473 c-2 -4 -1 -39 4 -76 11 -92 -2 -122 -75 -171 -48 -32
-55 -40 -46 -56 15 -27 27 -32 86 -36 82 -5 90 -12 106 -101 7 -42 19 -78 26
-81 7 -2 12 3 12 10 0 22 78 136 100 148 11 6 44 10 73 9 63 -3 97 7 97 27 0
9 -27 42 -60 73 -50 49 -60 63 -60 92 0 19 9 48 20 64 21 32 26 70 10 80 -10
6 -62 -17 -99 -46 -34 -27 -47 -24 -100 20 -48 40 -86 58 -94 44z"/>
<path d="M13288 16034 c-9 -19 -9 -39 -1 -79 7 -29 9 -64 5 -77 -5 -18 -76
-91 -142 -145 -11 -10 29 -23 71 -23 61 0 104 -16 117 -43 7 -12 13 -47 14
-77 3 -51 5 -55 28 -55 18 0 29 9 40 30 54 106 76 121 169 110 59 -7 61 -6 71
20 10 25 6 32 -55 97 -72 76 -71 71 -29 161 12 28 21 54 18 59 -10 16 -56 8
-98 -17 -56 -33 -94 -26 -145 26 -21 22 -41 39 -45 39 -3 0 -12 -12 -18 -26z"/>
<path d="M14944 15775 c-3 -14 -1 -46 6 -70 22 -79 -3 -147 -66 -181 -20 -10
-42 -31 -50 -45 -12 -25 -12 -27 9 -33 12 -3 41 -6 65 -6 75 0 107 -28 117
-100 15 -102 32 -106 71 -19 33 73 61 89 157 89 106 0 113 29 27 114 -67 65
-72 85 -45 164 9 24 13 48 9 53 -7 12 -42 2 -73 -22 -30 -24 -75 -24 -99 -1
-56 52 -79 70 -99 76 -18 6 -24 2 -29 -19z"/>
<path d="M10579 15671 c-22 -18 -23 -22 -11 -53 26 -74 16 -99 -82 -190 -39
-36 -67 -70 -63 -75 5 -4 36 -7 70 -6 34 2 70 0 80 -3 23 -7 45 -51 57 -116
23 -114 20 -107 35 -70 8 17 18 32 24 32 5 0 17 20 27 46 20 53 57 77 119 76
61 0 83 6 95 28 10 18 4 27 -45 72 -68 62 -78 79 -66 111 13 34 -20 64 -83 76
-36 7 -59 19 -90 50 l-43 42 -24 -20z"/>
<path d="M12294 15659 c-3 -6 -3 -55 0 -108 l7 -97 -48 -39 c-50 -39 -93 -85
-93 -97 0 -5 33 -8 73 -8 90 0 109 -15 130 -108 22 -94 31 -97 68 -18 40 85
60 99 138 94 46 -2 65 1 81 14 11 10 20 22 20 27 0 4 -27 35 -60 67 -67 65
-72 83 -40 149 20 41 27 105 11 105 -5 0 -11 -6 -14 -13 -3 -7 -23 -25 -45
-40 -49 -35 -74 -30 -129 23 -45 44 -88 65 -99 49z"/>
<path d="M10810 15645 c-22 -12 -23 -14 -7 -20 23 -9 47 1 47 20 0 18 -8 18
-40 0z"/>
<path d="M11653 15031 c4 -17 22 -55 40 -84 19 -29 40 -71 47 -92 7 -22 27
-63 45 -91 18 -28 36 -61 40 -74 4 -14 30 -67 58 -120 114 -214 140 -271 144
-315 7 -60 -14 -192 -37 -230 -9 -16 -20 -53 -23 -80 -9 -80 -81 -286 -133
-378 -15 -27 -58 -80 -96 -119 -65 -66 -97 -81 -90 -44 3 19 48 87 63 97 19
11 43 114 43 184 1 69 0 71 -44 120 -61 68 -74 74 -163 75 l-78 0 -48 -45
c-27 -26 -62 -72 -78 -103 -24 -49 -28 -68 -26 -130 2 -87 20 -123 83 -169 52
-37 90 -73 90 -84 0 -25 -191 -49 -460 -59 -134 -4 -228 -12 -249 -20 l-34
-13 49 -25 c27 -14 72 -31 99 -38 28 -8 68 -23 90 -34 21 -11 46 -20 55 -20 9
0 54 -16 100 -36 47 -20 104 -42 126 -49 23 -7 55 -20 71 -28 16 -9 47 -19 68
-23 22 -3 60 -17 85 -30 25 -13 50 -24 57 -24 20 0 43 -43 43 -81 0 -21 -12
-59 -26 -87 -23 -45 -26 -63 -31 -203 -5 -136 -8 -157 -26 -176 -22 -25 -79
-38 -202 -48 -91 -8 -178 -39 -218 -79 -64 -64 -124 -225 -112 -302 4 -30 1
-52 -10 -74 -25 -47 -24 -47 -390 -121 -60 -12 -126 -27 -145 -34 -19 -7 -62
-16 -95 -20 -114 -14 -143 -42 -150 -146 -7 -110 -15 -2466 -9 -2484 8 -20 26
-19 142 6 156 32 234 48 282 54 25 3 97 14 160 25 413 69 974 75 1370 14 161
-25 271 -45 365 -69 155 -39 164 -39 278 -1 56 18 156 46 222 61 66 14 147 33
180 40 33 8 94 17 135 20 41 4 109 13 150 20 115 22 436 33 730 25 274 -8 407
-22 708 -77 119 -21 147 -23 172 -13 16 7 32 21 35 31 4 10 4 128 1 261 -3
134 -11 578 -17 988 -6 410 -14 873 -17 1030 l-7 285 -210 17 c-397 32 -556
52 -571 73 -11 15 -14 69 -14 241 l0 222 -27 10 c-16 6 -59 13 -98 16 -38 2
-124 12 -190 21 -218 29 -209 17 -213 290 -3 144 0 219 7 233 10 20 50 41 184
101 26 11 52 21 58 21 5 0 47 14 92 31 45 18 111 43 147 56 36 13 90 35 120
48 30 13 90 35 133 49 70 23 116 54 117 79 0 4 -60 5 -132 2 -215 -11 -578 15
-578 41 0 10 38 48 70 70 21 15 49 51 72 95 50 95 52 162 9 254 -27 57 -34 64
-89 88 -33 15 -68 27 -79 27 -41 0 -122 -31 -145 -56 -12 -14 -31 -33 -40 -42
-37 -38 -62 -167 -49 -253 6 -38 5 -49 -5 -49 -10 0 -14 13 -14 40 0 22 -5 40
-10 40 -43 0 -120 113 -120 175 0 13 -10 40 -22 60 -27 47 -58 154 -65 226 -5
57 10 101 57 169 10 14 31 50 47 80 37 69 52 96 79 140 12 19 61 103 109 185
49 83 101 171 117 196 15 25 28 50 28 56 0 6 16 31 35 56 42 55 59 94 44 103
-12 7 -15 4 -121 -103 -78 -79 -167 -158 -293 -259 -38 -31 -106 -91 -151
-133 -96 -91 -126 -114 -175 -130 -21 -7 -63 -30 -95 -53 -98 -69 -255 -117
-388 -120 -61 -1 -83 4 -131 27 -32 15 -65 34 -73 41 -7 8 -25 14 -40 14 -54
0 -113 43 -255 183 -199 198 -274 284 -349 398 -59 90 -140 177 -173 185 -27
7 -28 6 -22 -25z m433 -918 c4 -15 17 -35 29 -45 12 -9 27 -36 34 -60 7 -24
17 -47 21 -53 4 -5 11 -26 14 -45 4 -19 15 -60 26 -90 10 -30 30 -95 45 -145
15 -49 37 -124 50 -165 37 -116 55 -232 55 -346 l0 -103 -30 -16 c-54 -28
-170 -14 -189 24 -5 9 -12 36 -16 60 -4 24 -14 60 -22 79 -8 19 -19 78 -24
130 -6 53 -15 104 -20 114 -14 26 -24 590 -11 614 6 10 7 27 2 40 -9 24 -4 34
16 34 8 0 17 -12 20 -27z m1249 -227 c14 -21 16 -52 11 -228 -4 -112 -10 -230
-16 -263 -43 -276 -54 -314 -97 -342 -28 -19 -123 -14 -148 7 -18 15 -19 1 6
285 12 138 42 245 106 384 41 89 99 180 115 181 4 0 15 -11 23 -24z m350 -445
c3 -5 1 -12 -5 -16 -5 -3 -10 1 -10 9 0 18 6 21 15 7z m-393 -1403 c9 -16 13
-83 14 -227 1 -259 7 -249 -150 -253 -89 -2 -110 1 -120 13 -7 11 -11 84 -11
229 l1 212 27 24 c26 22 37 24 127 24 93 0 100 -2 112 -22z m-527 -8 c12 -13
16 -53 18 -224 4 -260 12 -245 -138 -260 -152 -14 -145 -27 -145 255 0 266 -9
252 147 247 76 -2 106 -7 118 -18z m-537 -2 c9 -9 12 -73 12 -225 0 -214 0
-214 -25 -238 -22 -23 -32 -25 -118 -25 -59 0 -99 5 -110 13 -15 10 -17 37
-18 212 0 204 5 245 38 264 26 15 206 14 221 -1z m547 -726 c4 -9 9 -378 12
-818 l6 -802 -29 -18 c-37 -25 -215 -28 -238 -4 -13 13 -15 125 -18 825 l-3
809 25 13 c34 16 179 30 212 20 14 -5 29 -16 33 -25z m519 13 c15 -22 18 -109
25 -812 6 -465 6 -796 0 -810 -12 -33 -47 -43 -153 -43 -133 0 -128 -8 -124
227 1 103 -1 464 -5 800 l-8 613 27 25 c25 23 34 25 124 25 93 0 98 -1 114
-25z m-1070 -11 c13 -13 16 -47 16 -212 1 -108 3 -473 6 -810 l6 -612 -47 -21
c-65 -29 -174 -24 -208 9 l-22 23 -5 762 c-3 419 -2 779 1 800 4 21 12 44 18
50 27 27 211 36 235 11z m1976 -279 c17 -20 25 -340 10 -395 -14 -51 -32 -60
-119 -60 -111 0 -111 0 -111 220 0 140 3 187 15 210 19 36 25 38 116 39 56 1
80 -3 89 -14z m374 -4 c14 -16 18 -49 23 -207 5 -179 4 -190 -15 -214 -17 -21
-28 -25 -83 -25 -140 0 -147 12 -148 237 -1 92 -4 173 -7 181 -11 30 35 47
127 47 72 0 89 -3 103 -19z m-3265 -59 c5 -10 11 -104 13 -210 3 -225 5 -221
-94 -233 -76 -9 -134 3 -143 31 -9 27 -8 349 1 384 9 36 33 45 131 45 69 1 84
-2 92 -17z m-389 -10 c21 -17 21 -22 18 -211 -3 -189 -3 -193 -27 -212 -19
-15 -39 -19 -105 -19 -50 0 -87 5 -94 12 -15 15 -17 326 -2 380 15 53 42 68
121 68 49 0 73 -5 89 -18z m3664 -653 l26 -20 0 -195 c0 -194 0 -195 -25 -219
-20 -21 -34 -25 -84 -25 -133 0 -141 15 -142 252 l0 183 26 23 c37 31 159 32
199 1z m-379 -10 c17 -18 19 -40 20 -219 0 -164 -3 -202 -15 -213 -9 -9 -45
-17 -94 -20 -73 -4 -82 -2 -103 19 -21 21 -23 32 -24 131 -3 270 2 297 55 312
17 5 56 10 87 10 44 1 60 -3 74 -20z m-3294 -58 c24 -19 24 -21 24 -214 0
-193 0 -196 -24 -221 -22 -23 -32 -26 -97 -26 -112 0 -112 1 -119 197 -5 155
-5 163 19 216 26 60 31 62 127 66 33 1 54 -5 70 -18z m398 0 c11 -21 17 -403
7 -420 -17 -27 -149 -41 -200 -21 -36 13 -42 51 -36 253 6 215 1 207 132 207
76 0 89 -3 97 -19z"/>
<path d="M12616 15026 c-72 -28 -166 -123 -211 -212 -27 -55 -30 -69 -33 -191
l-4 -133 36 -54 c51 -76 119 -142 164 -157 20 -7 42 -19 48 -27 6 -9 36 -16
78 -19 61 -5 68 -4 72 14 4 15 20 23 59 32 45 10 63 22 117 75 86 85 108 124
123 226 11 72 11 97 -2 164 -15 82 -25 100 -111 204 -83 99 -207 128 -336 78z"/>
<path d="M10325 14939 c-4 -11 -1 -49 6 -84 16 -81 5 -110 -67 -172 -30 -25
-54 -51 -54 -58 0 -24 30 -37 84 -39 72 -2 91 -20 106 -102 7 -35 15 -66 19
-69 13 -8 60 44 80 89 26 59 49 70 129 62 69 -6 92 2 92 35 0 19 -8 29 -65 74
-20 17 -43 43 -50 60 -12 27 -10 35 22 99 33 66 34 70 17 83 -25 18 -34 17
-65 -13 -16 -16 -43 -28 -68 -31 -39 -5 -44 -3 -86 41 -50 51 -89 61 -100 25z"/>
<path d="M14702 14918 c-15 -15 -15 -69 0 -120 16 -55 -7 -95 -75 -134 -40
-23 -53 -36 -55 -57 -4 -30 5 -33 102 -40 70 -5 81 -16 91 -90 9 -68 21 -89
47 -85 15 2 25 15 34 48 7 25 27 59 44 75 29 28 36 30 99 28 60 -2 70 0 90 21
l23 24 -65 64 c-36 36 -68 75 -72 89 -6 25 19 99 37 110 15 10 0 29 -22 29
-10 0 -39 -9 -65 -20 -66 -28 -78 -26 -128 25 -46 47 -64 54 -85 33z"/>
<path d="M13953 14775 c-3 -9 -2 -46 1 -84 9 -87 -1 -111 -62 -150 -56 -36
-63 -46 -52 -77 7 -18 19 -22 81 -26 91 -7 105 -21 115 -118 l7 -69 27 14 c17
9 33 31 44 59 25 66 67 97 125 95 52 -2 91 7 91 22 0 20 -24 55 -61 89 -52 49
-58 80 -25 139 14 27 26 56 26 64 0 28 -37 29 -91 3 -69 -35 -88 -33 -134 14
-41 42 -81 52 -92 25z"/>
<path d="M11243 14724 c-3 -9 -1 -44 6 -78 11 -57 8 -116 -8 -116 -15 0 -141
-119 -141 -133 0 -4 22 -5 49 -1 86 11 161 -40 161 -110 0 -28 19 -86 28 -86
4 0 25 28 46 63 55 87 69 97 142 97 75 0 109 21 99 61 -3 14 -19 33 -34 42
-52 30 -91 71 -91 94 0 12 11 39 25 59 27 40 31 64 14 81 -9 9 -26 5 -66 -12
-51 -23 -57 -24 -96 -10 -23 8 -50 26 -60 40 -21 29 -64 34 -74 9z"/>
<path d="M14383 14138 c-6 -9 -6 -42 0 -95 13 -99 6 -119 -54 -163 -56 -40
-77 -69 -58 -81 8 -5 30 -9 50 -9 94 0 139 -34 139 -105 0 -37 21 -80 39 -80
7 0 28 29 46 64 18 35 39 67 46 72 8 5 44 9 81 9 68 0 98 14 98 46 0 7 -26 43
-59 78 -64 71 -64 73 -32 176 6 19 11 38 11 42 0 16 -41 7 -76 -17 -20 -14
-46 -25 -57 -25 -10 0 -48 23 -83 50 -68 54 -76 57 -91 38z"/>
<path d="M10529 14109 c-8 -16 -8 -37 2 -83 6 -35 9 -74 6 -88 -4 -15 -35 -49
-72 -79 -51 -43 -64 -59 -62 -79 2 -24 6 -25 74 -30 90 -6 102 -17 117 -107
10 -63 13 -68 37 -71 24 -3 29 2 43 44 9 26 27 62 41 80 26 33 27 34 104 34
122 0 127 23 30 127 -27 28 -49 60 -49 70 0 11 12 42 26 71 27 54 28 88 4 85
-8 -1 -41 -12 -73 -26 -31 -13 -68 -22 -80 -20 -13 3 -45 24 -71 49 -27 24
-52 44 -57 44 -4 0 -13 -9 -20 -21z"/>
<path d="M9093 8443 c9 -2 23 -2 30 0 6 3 -1 5 -18 5 -16 0 -22 -2 -12 -5z"/>
</g>
</svg>
